<svg xmlns="http://www.w3.org/2000/svg" viewBox="0 0 42.62 59.79">
    <defs>
        <style>
            .optegn-svampen2 {
                fill: #fff;
            }

        </style>
    </defs>
    <title>optegnet-svamp-2</title>
    <g class="svampen2" data-name="Lag 1">
        <path class="optegn-svampen2" d="M11.65,57.07a61.25,61.25,0,0,0,2.19-20.34c-.12-1.92-3.12-1.93-3,0A59.1,59.1,0,0,1,8.76,56.27a1.5,1.5,0,0,0,2.89.8Z" />
        <path class="optegn-svampen2" d="M22,56a36.47,36.47,0,0,1-3-19.22c.21-1.92-2.79-1.91-3,0a39.31,39.31,0,0,0,3.37,20.73c.79,1.76,3.37.24,2.59-1.51Z" />
        <path class="optegn-svampen2" d="M6.05,37.58l8.78,0c1.81,0,4.27.35,6-.35,3-1.2,2.93-4.71,2.57-7.45C22.7,24.12,20.51,18.48,19,13,18.08,9.74,17.61,3,14.68.8,8.22-4.08,5.14,14.72,4.21,17.68,2.76,22.33-5.13,38.37,5.36,38.16c1.93,0,1.93-3,0-3-4.57.09-.64-9.07-.22-10.41l2.8-8.95,2.53-8.06c.4-1.29,1-4.08,3.12-2.95.64.34,1.07,3.86,1.25,4.51C16.43,15,18.2,20.7,19.62,26.46c.6,2.47,1.73,4.43-.14,6.6-1.64,1.92-2.16,1.47-4.65,1.48l-8.78,0a1.5,1.5,0,0,0,0,3Z" />
        <path class="optegn-svampen2" d="M31,56.69a26,26,0,0,0,1.2-13.34c-.31-1.9-3.2-1.1-2.9.8A23,23,0,0,1,28.12,55.9c-.67,1.81,2.23,2.6,2.89.79Z" />
        <path class="optegn-svampen2" d="M34.44,42.73a26.82,26.82,0,0,0,4,16.35c1,1.64,3.62.13,2.6-1.51a23.93,23.93,0,0,1-3.59-14.84c.15-1.92-2.85-1.92-3,0Z" />
        <path class="optegn-svampen2" d="M28.88,44.72c4.32-.42,10.78,1.66,13.21-3.41,2-4.25-2.23-7.09-6-7.67-4-.63-9.17,1-11.15,4.83-1.65,3.22,1,7.07,4.58,5.42,1.75-.81.23-3.4-1.51-2.59q-.9-1.32.09-2.13a4.93,4.93,0,0,1,1.39-1.26,9,9,0,0,1,2.67-1.16,8.08,8.08,0,0,1,5.52.47c4.19,2.19.07,4.56-2.64,4.64-2.09.06-4.11-.35-6.21-.14-1.9.19-1.92,3.19,0,3Z" />
    </g>
</svg>
