<svg xmlns="http://www.w3.org/2000/svg" viewBox="0 0 57.83 59.57">
    <title>optegn-svamp-1</title>
    <g class="svampen1" data-name="Lag 2">
        <path class="optegn-svampen1" d="M22,58c5.09-.65,6.52-5.38,8-9.71,2.42-7.24,4.29-14.5,3.42-22.18-.22-1.89-3.22-1.91-3,0a40.42,40.42,0,0,1-1.45,15.38C28,45,26.44,54.41,22,55c-1.89.25-1.92,3.25,0,3Z" />
        <path class="optegn-svampen1" d="M44.87,55.54A58,58,0,0,1,39,25.42c.14-1.92-2.86-1.91-3,0a60.94,60.94,0,0,0,6.31,31.63c.85,1.73,3.44.22,2.59-1.51Z" />
        <path class="optegn-svampen1" d="M35.38,25.4c7.3,1,11.72-1.51,11.64-9.25C47,11,46.09-.94,38.3.06c-2.8.36-4.75,2.81-6.15,5A105.32,105.32,0,0,0,24.69,19c-3.07,7.22,4.81,8.81,10.21,7.54,1.88-.44,1.08-3.34-.8-2.9a16,16,0,0,1-3.83.61q-4.35-2.82-1.88-5.85c.43-1.53,1.69-3.15,2.43-4.53s1.62-3,2.44-4.53c.47-.92,1-1.82,1.48-2.7q1.07-3.24,4.32-1.73,3.45-1,3.75,2.28A23.44,23.44,0,0,1,43.45,10,35,35,0,0,1,44,16.15c0,2.64-.28,5.26-3.21,6.34-1.56.57-3.82.12-5.43-.09-1.9-.25-1.89,2.75,0,3Z" />
        <path class="optegn-svampen1" d="M51.41,58.42a26.52,26.52,0,0,0,1.06-9.62c-.11-1.43-2.36-1.45-2.25,0a25,25,0,0,1-1,9,1.13,1.13,0,0,0,2.17.6Z" />
        <path class="optegn-svampen1" d="M47.7,48.92c1.91,0,3.83,0,5.75,0A4.43,4.43,0,0,0,56.74,48c1.61-1.59,1.13-4.45.21-6.27a4.45,4.45,0,0,0-6-1.87c-2.68,1.15-3.71,4.06-4.51,6.66-.43,1.38,1.74,2,2.17.59.48-1.57,1-3.41,2.25-4.56,1.58-1.42,3.67-1.13,4.34,1a4.45,4.45,0,0,1,.26,1.91c-.14,1.11-1.09,1.24-2.06,1.25-1.92,0-3.84,0-5.75,0a1.13,1.13,0,0,0,0,2.25Z" />
        <path class="optegn-svampen1" d="M53.72,48.86a13.67,13.67,0,0,0,2,10.19c.79,1.21,2.74.08,1.94-1.13a11.42,11.42,0,0,1-1.75-8.47c.26-1.41-1.91-2-2.17-.59Z" />
        <path class="optegn-svampen1" d="M4,44.8A20,20,0,0,1,2.5,57.49c-.6,1.3,1.34,2.45,1.94,1.13A22.61,22.61,0,0,0,6.12,44.2c-.3-1.42-2.47-.82-2.17.6Z" />
        <path class="optegn-svampen1" d="M9.27,43.67a20.24,20.24,0,0,0,3,14.36c.79,1.21,2.74.08,1.95-1.14a17.82,17.82,0,0,1-2.76-12.62c.22-1.42-1.94-2-2.17-.6Z" />
        <path class="optegn-svampen1" d="M2.66,45.69c2.78,0,7,.79,9.59-.11,1.64-.56,2-1.7,2.1-3.33a76.24,76.24,0,0,0-.21-11c-.14-2-.43-4.27-2-5.72-3.69-3.35-6.4,0-7.7,3.44S1.54,35.84.49,39.36a7.27,7.27,0,0,0,.2,5.75c.62,1.3,2.56.16,1.94-1.14C1.2,41,4,36.4,5.06,33.6c.57-1.5,1-3.83,2-5.11q.77-3.48,4.65.84a17.22,17.22,0,0,1,.26,3c.06,1.41.05,2.83.07,4.24s.64,4.34.1,5.65c-1,2.33-7.29,1.18-9.44,1.19a1.13,1.13,0,0,0,0,2.25Z" />
    </g>
</svg>
